<mxfile host="app.diagrams.net" modified="2021-06-17T15:25:07.542Z" agent="5.0 (Windows NT 10.0; Win64; x64) AppleWebKit/537.36 (KHTML, like Gecko) Chrome/91.0.4472.101 Safari/537.36 Edg/91.0.864.48" etag="6Hw4nh7_vKD9Fy0uIGHR" version="14.7.10" type="github">
  <diagram id="R2lEEEUBdFMjLlhIrx00" name="Page-1">
    <mxGraphModel dx="1248" dy="677" grid="1" gridSize="10" guides="1" tooltips="1" connect="1" arrows="1" fold="1" page="1" pageScale="1" pageWidth="1169" pageHeight="1654" math="0" shadow="0" extFonts="Permanent Marker^https://fonts.googleapis.com/css?family=Permanent+Marker">
      <root>
        <mxCell id="0" />
        <mxCell id="1" parent="0" />
        <mxCell id="-g3xx4oacssLbIQ0IJNj-2" value="" style="rounded=0;whiteSpace=wrap;html=1;" parent="1" vertex="1">
          <mxGeometry x="50" y="30" width="1100" height="900" as="geometry" />
        </mxCell>
        <mxCell id="jpdoez3AHedd-ekDQoxY-1" value="Agência" style="whiteSpace=wrap;html=1;align=center;" parent="1" vertex="1">
          <mxGeometry x="750" y="130" width="100" height="40" as="geometry" />
        </mxCell>
        <mxCell id="jpdoez3AHedd-ekDQoxY-5" value="Funcionário" style="whiteSpace=wrap;html=1;align=center;" parent="1" vertex="1">
          <mxGeometry x="320" y="130" width="100" height="40" as="geometry" />
        </mxCell>
        <mxCell id="jpdoez3AHedd-ekDQoxY-10" value="" style="endArrow=none;html=1;rounded=0;" parent="1" edge="1">
          <mxGeometry relative="1" as="geometry">
            <mxPoint x="220" y="60" as="sourcePoint" />
            <mxPoint x="220" y="240" as="targetPoint" />
          </mxGeometry>
        </mxCell>
        <mxCell id="jpdoez3AHedd-ekDQoxY-11" value="" style="endArrow=none;html=1;rounded=0;" parent="1" edge="1">
          <mxGeometry relative="1" as="geometry">
            <mxPoint x="170" y="119.5" as="sourcePoint" />
            <mxPoint x="220" y="119.5" as="targetPoint" />
          </mxGeometry>
        </mxCell>
        <mxCell id="jpdoez3AHedd-ekDQoxY-12" value="" style="endArrow=none;html=1;rounded=0;" parent="1" edge="1">
          <mxGeometry relative="1" as="geometry">
            <mxPoint x="170" y="239.5" as="sourcePoint" />
            <mxPoint x="220" y="239.5" as="targetPoint" />
          </mxGeometry>
        </mxCell>
        <mxCell id="jpdoez3AHedd-ekDQoxY-13" value="" style="endArrow=none;html=1;rounded=0;" parent="1" edge="1">
          <mxGeometry relative="1" as="geometry">
            <mxPoint x="170" y="179.5" as="sourcePoint" />
            <mxPoint x="220" y="179.5" as="targetPoint" />
          </mxGeometry>
        </mxCell>
        <mxCell id="jpdoez3AHedd-ekDQoxY-14" value="" style="endArrow=none;html=1;rounded=0;" parent="1" edge="1">
          <mxGeometry relative="1" as="geometry">
            <mxPoint x="170" y="60" as="sourcePoint" />
            <mxPoint x="220" y="60" as="targetPoint" />
          </mxGeometry>
        </mxCell>
        <mxCell id="jpdoez3AHedd-ekDQoxY-6" value="Nome" style="ellipse;whiteSpace=wrap;html=1;align=center;" parent="1" vertex="1">
          <mxGeometry x="80" y="100" width="100" height="40" as="geometry" />
        </mxCell>
        <mxCell id="jpdoez3AHedd-ekDQoxY-7" value="Matrícula" style="ellipse;whiteSpace=wrap;html=1;align=center;fontStyle=4;" parent="1" vertex="1">
          <mxGeometry x="80" y="40" width="100" height="40" as="geometry" />
        </mxCell>
        <mxCell id="jpdoez3AHedd-ekDQoxY-8" value="Endereço" style="ellipse;whiteSpace=wrap;html=1;align=center;" parent="1" vertex="1">
          <mxGeometry x="80" y="160" width="100" height="40" as="geometry" />
        </mxCell>
        <mxCell id="jpdoez3AHedd-ekDQoxY-9" value="Salário" style="ellipse;whiteSpace=wrap;html=1;align=center;" parent="1" vertex="1">
          <mxGeometry x="80" y="220" width="100" height="40" as="geometry" />
        </mxCell>
        <mxCell id="jpdoez3AHedd-ekDQoxY-15" value="" style="endArrow=none;html=1;rounded=0;" parent="1" edge="1">
          <mxGeometry relative="1" as="geometry">
            <mxPoint x="220" y="149.5" as="sourcePoint" />
            <mxPoint x="320" y="150" as="targetPoint" />
          </mxGeometry>
        </mxCell>
        <mxCell id="jpdoez3AHedd-ekDQoxY-16" value="" style="endArrow=none;html=1;rounded=0;" parent="1" edge="1">
          <mxGeometry relative="1" as="geometry">
            <mxPoint x="940" y="90" as="sourcePoint" />
            <mxPoint x="940" y="210" as="targetPoint" />
          </mxGeometry>
        </mxCell>
        <mxCell id="jpdoez3AHedd-ekDQoxY-18" value="" style="endArrow=none;html=1;rounded=0;" parent="1" edge="1">
          <mxGeometry relative="1" as="geometry">
            <mxPoint x="990" y="89.5" as="sourcePoint" />
            <mxPoint x="940" y="89.5" as="targetPoint" />
          </mxGeometry>
        </mxCell>
        <mxCell id="jpdoez3AHedd-ekDQoxY-19" value="" style="endArrow=none;html=1;rounded=0;" parent="1" edge="1">
          <mxGeometry relative="1" as="geometry">
            <mxPoint x="990" y="149.5" as="sourcePoint" />
            <mxPoint x="940" y="149.5" as="targetPoint" />
          </mxGeometry>
        </mxCell>
        <mxCell id="jpdoez3AHedd-ekDQoxY-20" value="" style="endArrow=none;html=1;rounded=0;" parent="1" edge="1">
          <mxGeometry relative="1" as="geometry">
            <mxPoint x="990" y="209.5" as="sourcePoint" />
            <mxPoint x="940" y="209.5" as="targetPoint" />
          </mxGeometry>
        </mxCell>
        <mxCell id="jpdoez3AHedd-ekDQoxY-2" value="Numero ID" style="ellipse;whiteSpace=wrap;html=1;align=center;fontStyle=4;direction=west;" parent="1" vertex="1">
          <mxGeometry x="990" y="70" width="100" height="40" as="geometry" />
        </mxCell>
        <mxCell id="jpdoez3AHedd-ekDQoxY-3" value="Nome" style="ellipse;whiteSpace=wrap;html=1;align=center;direction=west;" parent="1" vertex="1">
          <mxGeometry x="990" y="130" width="100" height="40" as="geometry" />
        </mxCell>
        <mxCell id="jpdoez3AHedd-ekDQoxY-4" value="Cidade" style="ellipse;whiteSpace=wrap;html=1;align=center;direction=west;" parent="1" vertex="1">
          <mxGeometry x="990" y="190" width="100" height="40" as="geometry" />
        </mxCell>
        <mxCell id="jpdoez3AHedd-ekDQoxY-22" value="Cliente" style="whiteSpace=wrap;html=1;align=center;" parent="1" vertex="1">
          <mxGeometry x="750" y="730" width="100" height="40" as="geometry" />
        </mxCell>
        <mxCell id="jpdoez3AHedd-ekDQoxY-23" value="RG" style="ellipse;whiteSpace=wrap;html=1;align=center;fontStyle=4;" parent="1" vertex="1">
          <mxGeometry x="990" y="630" width="100" height="40" as="geometry" />
        </mxCell>
        <mxCell id="jpdoez3AHedd-ekDQoxY-25" value="Nome" style="ellipse;whiteSpace=wrap;html=1;align=center;" parent="1" vertex="1">
          <mxGeometry x="990" y="695" width="100" height="40" as="geometry" />
        </mxCell>
        <mxCell id="jpdoez3AHedd-ekDQoxY-26" value="Endereço" style="ellipse;whiteSpace=wrap;html=1;align=center;" parent="1" vertex="1">
          <mxGeometry x="990" y="765" width="100" height="40" as="geometry" />
        </mxCell>
        <mxCell id="jpdoez3AHedd-ekDQoxY-27" value="Cidade" style="ellipse;whiteSpace=wrap;html=1;align=center;" parent="1" vertex="1">
          <mxGeometry x="990" y="835" width="100" height="40" as="geometry" />
        </mxCell>
        <mxCell id="jpdoez3AHedd-ekDQoxY-29" value="" style="endArrow=none;html=1;rounded=0;entryX=1;entryY=0.5;entryDx=0;entryDy=0;" parent="1" target="jpdoez3AHedd-ekDQoxY-1" edge="1">
          <mxGeometry relative="1" as="geometry">
            <mxPoint x="940" y="149.5" as="sourcePoint" />
            <mxPoint x="890" y="149.5" as="targetPoint" />
          </mxGeometry>
        </mxCell>
        <mxCell id="jpdoez3AHedd-ekDQoxY-30" value="Trabalha" style="shape=rhombus;perimeter=rhombusPerimeter;whiteSpace=wrap;html=1;align=center;" parent="1" vertex="1">
          <mxGeometry x="520" y="120" width="120" height="60" as="geometry" />
        </mxCell>
        <mxCell id="jpdoez3AHedd-ekDQoxY-32" value="" style="endArrow=none;html=1;rounded=0;" parent="1" edge="1">
          <mxGeometry relative="1" as="geometry">
            <mxPoint x="420" y="149.5" as="sourcePoint" />
            <mxPoint x="520" y="150" as="targetPoint" />
          </mxGeometry>
        </mxCell>
        <mxCell id="jpdoez3AHedd-ekDQoxY-33" value="" style="endArrow=none;html=1;rounded=0;" parent="1" edge="1">
          <mxGeometry relative="1" as="geometry">
            <mxPoint x="640" y="149.5" as="sourcePoint" />
            <mxPoint x="750" y="149.5" as="targetPoint" />
          </mxGeometry>
        </mxCell>
        <mxCell id="jpdoez3AHedd-ekDQoxY-35" value="(1,N)" style="text;html=1;align=center;verticalAlign=middle;resizable=0;points=[];autosize=1;strokeColor=none;" parent="1" vertex="1">
          <mxGeometry x="450" y="130" width="40" height="20" as="geometry" />
        </mxCell>
        <mxCell id="jpdoez3AHedd-ekDQoxY-36" value="(N,N)" style="text;html=1;align=center;verticalAlign=middle;resizable=0;points=[];autosize=1;strokeColor=none;" parent="1" vertex="1">
          <mxGeometry x="665" y="130" width="40" height="20" as="geometry" />
        </mxCell>
        <mxCell id="jpdoez3AHedd-ekDQoxY-38" value="Cadastrado" style="shape=rhombus;perimeter=rhombusPerimeter;whiteSpace=wrap;html=1;align=center;" parent="1" vertex="1">
          <mxGeometry x="740" y="280" width="120" height="60" as="geometry" />
        </mxCell>
        <mxCell id="jpdoez3AHedd-ekDQoxY-39" value="" style="endArrow=none;html=1;rounded=0;entryX=0.5;entryY=0;entryDx=0;entryDy=0;" parent="1" target="jpdoez3AHedd-ekDQoxY-38" edge="1">
          <mxGeometry relative="1" as="geometry">
            <mxPoint x="799.5" y="170" as="sourcePoint" />
            <mxPoint x="799.5" y="310" as="targetPoint" />
          </mxGeometry>
        </mxCell>
        <mxCell id="jpdoez3AHedd-ekDQoxY-41" value="(1,N)" style="text;html=1;align=center;verticalAlign=middle;resizable=0;points=[];autosize=1;strokeColor=none;" parent="1" vertex="1">
          <mxGeometry x="800" y="390" width="40" height="20" as="geometry" />
        </mxCell>
        <mxCell id="jpdoez3AHedd-ekDQoxY-42" value="(1,1)" style="text;html=1;align=center;verticalAlign=middle;resizable=0;points=[];autosize=1;strokeColor=none;" parent="1" vertex="1">
          <mxGeometry x="810" y="670" width="40" height="20" as="geometry" />
        </mxCell>
        <mxCell id="jpdoez3AHedd-ekDQoxY-43" value="" style="endArrow=none;html=1;rounded=0;" parent="1" edge="1">
          <mxGeometry relative="1" as="geometry">
            <mxPoint x="930" y="860" as="sourcePoint" />
            <mxPoint x="990" y="860" as="targetPoint" />
          </mxGeometry>
        </mxCell>
        <mxCell id="jpdoez3AHedd-ekDQoxY-44" value="" style="endArrow=none;html=1;rounded=0;" parent="1" edge="1">
          <mxGeometry relative="1" as="geometry">
            <mxPoint x="930" y="790" as="sourcePoint" />
            <mxPoint x="990" y="790" as="targetPoint" />
          </mxGeometry>
        </mxCell>
        <mxCell id="jpdoez3AHedd-ekDQoxY-45" value="" style="endArrow=none;html=1;rounded=0;" parent="1" edge="1">
          <mxGeometry relative="1" as="geometry">
            <mxPoint x="930" y="714.5" as="sourcePoint" />
            <mxPoint x="990" y="714.5" as="targetPoint" />
          </mxGeometry>
        </mxCell>
        <mxCell id="jpdoez3AHedd-ekDQoxY-46" value="" style="endArrow=none;html=1;rounded=0;" parent="1" edge="1">
          <mxGeometry relative="1" as="geometry">
            <mxPoint x="930" y="650.5" as="sourcePoint" />
            <mxPoint x="990" y="650" as="targetPoint" />
          </mxGeometry>
        </mxCell>
        <mxCell id="jpdoez3AHedd-ekDQoxY-48" value="" style="endArrow=none;html=1;rounded=0;" parent="1" edge="1">
          <mxGeometry relative="1" as="geometry">
            <mxPoint x="930" y="650" as="sourcePoint" />
            <mxPoint x="930" y="860" as="targetPoint" />
          </mxGeometry>
        </mxCell>
        <mxCell id="jpdoez3AHedd-ekDQoxY-49" value="" style="endArrow=none;html=1;rounded=0;exitX=1;exitY=0.5;exitDx=0;exitDy=0;" parent="1" source="jpdoez3AHedd-ekDQoxY-22" edge="1">
          <mxGeometry relative="1" as="geometry">
            <mxPoint x="870" y="749.66" as="sourcePoint" />
            <mxPoint x="930" y="749.66" as="targetPoint" />
          </mxGeometry>
        </mxCell>
        <mxCell id="jpdoez3AHedd-ekDQoxY-50" value="Conta Bancária" style="whiteSpace=wrap;html=1;align=center;" parent="1" vertex="1">
          <mxGeometry x="750" y="450" width="100" height="40" as="geometry" />
        </mxCell>
        <mxCell id="jpdoez3AHedd-ekDQoxY-51" value="N° da conta" style="ellipse;whiteSpace=wrap;html=1;align=center;fontStyle=4;" parent="1" vertex="1">
          <mxGeometry x="550" y="380" width="100" height="40" as="geometry" />
        </mxCell>
        <mxCell id="jpdoez3AHedd-ekDQoxY-52" value="Saldo" style="ellipse;whiteSpace=wrap;html=1;align=center;" parent="1" vertex="1">
          <mxGeometry x="550" y="450" width="100" height="40" as="geometry" />
        </mxCell>
        <mxCell id="jpdoez3AHedd-ekDQoxY-56" value="Transações" style="ellipse;whiteSpace=wrap;html=1;align=center;" parent="1" vertex="1">
          <mxGeometry x="550" y="525" width="100" height="40" as="geometry" />
        </mxCell>
        <mxCell id="jpdoez3AHedd-ekDQoxY-57" value="N° transações" style="ellipse;whiteSpace=wrap;html=1;align=center;" parent="1" vertex="1">
          <mxGeometry x="460" y="615" width="100" height="40" as="geometry" />
        </mxCell>
        <mxCell id="jpdoez3AHedd-ekDQoxY-58" value="Data" style="ellipse;whiteSpace=wrap;html=1;align=center;" parent="1" vertex="1">
          <mxGeometry x="640" y="615" width="100" height="40" as="geometry" />
        </mxCell>
        <mxCell id="jpdoez3AHedd-ekDQoxY-59" value="Valor" style="ellipse;whiteSpace=wrap;html=1;align=center;" parent="1" vertex="1">
          <mxGeometry x="550" y="675" width="100" height="40" as="geometry" />
        </mxCell>
        <mxCell id="jpdoez3AHedd-ekDQoxY-62" value="" style="endArrow=none;html=1;rounded=0;entryX=0.288;entryY=1.001;entryDx=0;entryDy=0;entryPerimeter=0;" parent="1" target="jpdoez3AHedd-ekDQoxY-56" edge="1">
          <mxGeometry relative="1" as="geometry">
            <mxPoint x="560" y="634.66" as="sourcePoint" />
            <mxPoint x="630" y="634.66" as="targetPoint" />
          </mxGeometry>
        </mxCell>
        <mxCell id="jpdoez3AHedd-ekDQoxY-63" value="" style="endArrow=none;html=1;rounded=0;exitX=0.734;exitY=0.985;exitDx=0;exitDy=0;exitPerimeter=0;" parent="1" source="jpdoez3AHedd-ekDQoxY-56" edge="1">
          <mxGeometry relative="1" as="geometry">
            <mxPoint x="580" y="634.66" as="sourcePoint" />
            <mxPoint x="640" y="634.66" as="targetPoint" />
          </mxGeometry>
        </mxCell>
        <mxCell id="jpdoez3AHedd-ekDQoxY-64" value="" style="endArrow=none;html=1;rounded=0;entryX=0.5;entryY=1;entryDx=0;entryDy=0;" parent="1" target="jpdoez3AHedd-ekDQoxY-56" edge="1">
          <mxGeometry relative="1" as="geometry">
            <mxPoint x="599.66" y="675" as="sourcePoint" />
            <mxPoint x="599.66" y="605" as="targetPoint" />
          </mxGeometry>
        </mxCell>
        <mxCell id="jpdoez3AHedd-ekDQoxY-65" value="" style="endArrow=none;html=1;rounded=0;" parent="1" edge="1">
          <mxGeometry relative="1" as="geometry">
            <mxPoint x="650" y="544.6600000000001" as="sourcePoint" />
            <mxPoint x="710" y="545" as="targetPoint" />
          </mxGeometry>
        </mxCell>
        <mxCell id="jpdoez3AHedd-ekDQoxY-66" value="" style="endArrow=none;html=1;rounded=0;" parent="1" edge="1">
          <mxGeometry relative="1" as="geometry">
            <mxPoint x="710" y="395" as="sourcePoint" />
            <mxPoint x="710" y="545" as="targetPoint" />
          </mxGeometry>
        </mxCell>
        <mxCell id="jpdoez3AHedd-ekDQoxY-67" value="" style="endArrow=none;html=1;rounded=0;" parent="1" edge="1">
          <mxGeometry relative="1" as="geometry">
            <mxPoint x="650" y="469.65999999999997" as="sourcePoint" />
            <mxPoint x="710" y="470" as="targetPoint" />
            <Array as="points">
              <mxPoint x="690" y="469.65999999999997" />
            </Array>
          </mxGeometry>
        </mxCell>
        <mxCell id="jpdoez3AHedd-ekDQoxY-68" value="" style="endArrow=none;html=1;rounded=0;exitX=0.988;exitY=0.375;exitDx=0;exitDy=0;exitPerimeter=0;" parent="1" source="jpdoez3AHedd-ekDQoxY-51" edge="1">
          <mxGeometry relative="1" as="geometry">
            <mxPoint x="650" y="395" as="sourcePoint" />
            <mxPoint x="710" y="395" as="targetPoint" />
          </mxGeometry>
        </mxCell>
        <mxCell id="jpdoez3AHedd-ekDQoxY-69" value="" style="endArrow=none;html=1;rounded=0;" parent="1" edge="1">
          <mxGeometry relative="1" as="geometry">
            <mxPoint x="710" y="469.66" as="sourcePoint" />
            <mxPoint x="750" y="470" as="targetPoint" />
          </mxGeometry>
        </mxCell>
        <mxCell id="jpdoez3AHedd-ekDQoxY-71" value="(1,N)" style="text;html=1;align=center;verticalAlign=middle;resizable=0;points=[];autosize=1;strokeColor=none;" parent="1" vertex="1">
          <mxGeometry x="800" y="525" width="40" height="20" as="geometry" />
        </mxCell>
        <mxCell id="zG_ZTPRzpLrPAmrK-7Hl-1" value="" style="endArrow=none;html=1;rounded=0;exitX=0.5;exitY=0;exitDx=0;exitDy=0;entryX=0.5;entryY=1;entryDx=0;entryDy=0;" edge="1" parent="1" source="jpdoez3AHedd-ekDQoxY-50" target="jpdoez3AHedd-ekDQoxY-38">
          <mxGeometry relative="1" as="geometry">
            <mxPoint x="805" y="430" as="sourcePoint" />
            <mxPoint x="965" y="430" as="targetPoint" />
          </mxGeometry>
        </mxCell>
        <mxCell id="zG_ZTPRzpLrPAmrK-7Hl-2" value="" style="endArrow=none;html=1;rounded=0;exitX=0.5;exitY=0;exitDx=0;exitDy=0;" edge="1" parent="1" source="jpdoez3AHedd-ekDQoxY-22">
          <mxGeometry relative="1" as="geometry">
            <mxPoint x="770" y="619.5" as="sourcePoint" />
            <mxPoint x="800" y="650" as="targetPoint" />
          </mxGeometry>
        </mxCell>
        <mxCell id="zG_ZTPRzpLrPAmrK-7Hl-3" value="Possui" style="shape=rhombus;perimeter=rhombusPerimeter;whiteSpace=wrap;html=1;align=center;" vertex="1" parent="1">
          <mxGeometry x="740" y="590" width="120" height="60" as="geometry" />
        </mxCell>
        <mxCell id="zG_ZTPRzpLrPAmrK-7Hl-4" value="" style="endArrow=none;html=1;rounded=0;exitX=0.5;exitY=0;exitDx=0;exitDy=0;entryX=0.5;entryY=1;entryDx=0;entryDy=0;" edge="1" parent="1" source="zG_ZTPRzpLrPAmrK-7Hl-3" target="jpdoez3AHedd-ekDQoxY-50">
          <mxGeometry relative="1" as="geometry">
            <mxPoint x="790" y="580" as="sourcePoint" />
            <mxPoint x="950" y="580" as="targetPoint" />
          </mxGeometry>
        </mxCell>
        <mxCell id="zG_ZTPRzpLrPAmrK-7Hl-6" value="(1,1)" style="text;html=1;align=center;verticalAlign=middle;resizable=0;points=[];autosize=1;strokeColor=none;" vertex="1" parent="1">
          <mxGeometry x="800" y="220" width="40" height="20" as="geometry" />
        </mxCell>
      </root>
    </mxGraphModel>
  </diagram>
</mxfile>
